<svg width="200px" height="200px" aria-labelledby="fresh-logo description" id="fresh_logo" data-name="fresh logo" viewBox="0 0 200 200" xmlns="http://www.w3.org/2000/svg" xmlns:xlink="http://www.w3.org/1999/xlink">
		<title id="fresh-logo">Fresh Logo</title>
		<desc id="description">White space-shuttle facing right on a black background</desc>
		<defs></defs>
		<g id="Page-1" stroke="none" stroke-width="1" fill="none" fill-rule="evenodd">
				<g id="fresh">
						<rect id="Rectangle" fill="#333333" x="0" y="0" width="200" height="200"></rect>
						<path d="M164.74345,88.7005893 C156.937062,85.0549464 146.497038,82.9642857 136.1,82.9642857 L68.2526625,82.9642857 C67.0765625,81.4133259 65.738725,80.1302054 64.2816625,79.1785714 L113.3,79.1785714 C78.4247875,72.0204955 76.1082125,47 46.8007125,47 L46.8,47 L46.8,77.2857143 L43,77.2857143 L43,47 C36.703875,47 31.6,53.7797411 31.6,62.1428571 L31.6,77.2857143 C26.0907125,77.2857143 24,79.6593571 24,82.9642857 L24,92.4285714 C24,95.7370491 26.0945125,98.1071429 31.6,98.1071429 L31.6,101.892857 C26.0907125,101.892857 24,104.2665 24,107.571429 L24,117.035714 C24,120.344192 26.0945125,122.714286 31.6,122.714286 L31.6,137.857143 C31.6,146.220259 36.703875,153 43,153 L43,122.714286 L46.8,122.714286 L46.8,153 L46.8007125,153 C76.1082125,153 78.4247875,127.979504 113.3,120.821429 L64.281425,120.821429 C65.7384875,119.869795 67.076325,118.586674 68.252425,117.035714 L136.1,117.035714 C146.497038,117.035714 156.937062,114.945054 164.74345,111.299411 C171.791975,108.007969 176,103.783821 176,100 C176,96.2161786 171.791975,91.9920312 164.74345,88.7005893 Z M139.9,109.464286 C138.850659,109.464286 138,108.616825 138,107.571429 L138,92.4285714 C138,91.3831753 138.850659,90.5357143 139.9,90.5357143 C147.478388,90.5357143 147.486225,109.464286 139.9,109.464286 Z" id="Shape" fill="#FFFFFF" fill-rule="nonzero"></path>
				</g>
		</g>
</svg>
