<svg width="200px" height="200px" aria-labelledby="gulp-logo description" id="gulp_logo" data-name="gulp logo" viewBox="0 0 200 200" xmlns="http://www.w3.org/2000/svg" xmlns:xlink="http://www.w3.org/1999/xlink">
	<title id="gulp-logo">Gulp Logo</title>
	<desc id="description">Black and white logo for gulp.js that has a big cup with the word 'gulp' written across it.</desc>
	<defs></defs>
	<g id="Page-1" stroke="none" stroke-width="1" fill="none" fill-rule="evenodd">
		<g id="gulp" fill="#323232" fill-rule="nonzero">
			<path d="M125.722686,142.216341 L121.316155,149.904331 L119.878563,174.968429 C119.878563,177.749857 111.034249,180 100.158556,180 C89.2828622,180 80.4385482,177.749857 80.4385482,174.968429 L78.6259326,150.154347 L73.9693857,142.216341 C86.8452068,147.622935 113.346897,147.435423 125.722686,142.216341 Z M64.4687799,63.0550428 L68.7190509,102.276294 C70.5629185,96.0258952 75.2194654,87.5878572 81.2198481,85.0251938 C83.1887236,84.18139 85.1888511,84.18139 87.0639707,85.3064617 C88.6890743,86.2440215 90.064162,88.212897 90.220422,88.9941969 C90.5954459,91.0255764 89.5953821,91.8381282 88.8140823,91.8381282 C87.8765225,91.8381282 87.1577267,90.4005365 86.6889468,89.5567327 C85.4076151,87.2753373 83.4699915,87.1815813 81.40736,88.6816769 C79.2509725,90.2442766 77.3758529,92.869444 76.0632692,95.1508394 C74.4694176,97.9010148 73.1255819,100.932458 72.3130301,103.963901 C71.8442502,105.714013 71.4067223,108.526692 72.1255181,110.183048 C72.4380381,110.870592 72.906818,111.30812 73.6568658,111.30812 C75.2194654,111.30812 77.5008609,109.245488 78.5946807,108.151668 C80.0010203,106.745329 81.8136359,104.557689 82.5011798,103.15135 L84.1262834,98.3072907 C84.9388352,96.1821552 87.2202307,96.5571791 87.2202307,98.3072907 C87.2202307,101.494994 86.0639069,102.557562 84.0950314,109.151732 C82.2824158,115.245871 81.7198799,117.214746 81.7198799,117.214746 C81.501116,118.089802 80.6573122,119.558646 79.7510044,119.558646 C79.3759805,119.558646 79.0947125,119.433638 78.9384526,119.183622 C78.6259326,118.746094 78.6571846,117.527266 78.6884366,117.214746 C78.7509406,116.214683 80.6573122,110.276804 80.9698321,109.339244 C80.3447923,110.026788 79.6885004,110.714332 78.9697046,111.401876 C77.282097,112.995727 74.5631736,115.089611 72.2505261,115.089611 C71.1879584,115.089611 70.5004145,114.808343 69.8441227,114.339563 L72.2192741,139.216149 C72.844314,140.778749 84.4700553,144.56024 99.7835318,144.56024 C115.12826,144.56024 126.754002,140.747497 127.347789,139.216149 L130.754257,109.651764 C128.972893,111.276868 126.910262,113.276995 124.628866,114.277059 C122.941258,114.995855 119.191019,115.464635 119.191019,112.495695 C119.191019,110.870592 122.034951,107.870401 123.691306,105.776517 C124.128834,105.245233 125.16015,103.932649 125.16015,103.245106 C125.16015,102.338798 123.28503,102.557562 121.503667,104.026405 C120.503603,104.870209 119.566043,105.995281 118.784743,107.057849 C117.440908,108.932968 116.722112,110.558072 116.128324,111.901908 C114.1907,116.339691 114.846992,114.589579 113.284393,118.777346 C111.721793,122.933861 111.971809,122.465081 111.659289,123.152625 C111.378021,123.746413 110.971745,124.246445 110.409209,124.558965 C109.815421,124.871485 109.00287,124.840233 108.502838,124.465209 C108.22157,124.277697 108.096562,123.871421 108.096562,123.308885 C108.096562,123.027617 108.127814,122.746349 108.190318,122.465081 C108.659098,120.55871 110.627973,116.80847 112.878117,111.745648 C113.378149,110.589324 113.190637,110.933096 113.128133,111.026852 C111.190509,112.901971 109.721666,113.808279 108.627846,114.308311 C106.81523,115.120863 104.565087,115.120863 104.096307,113.026979 C104.065055,112.901971 104.065055,112.776963 104.033803,112.651955 C100.346068,115.527139 96.4395686,116.308439 97.7834043,110.120544 C96.3458126,112.683207 93.8456532,114.777091 90.7829579,114.777091 C89.5016262,114.777091 88.5640664,114.339563 88.0952865,113.183239 C87.3764906,111.46438 88.5015624,108.526692 89.5328781,105.745265 C90.064162,104.338925 90.7829579,102.651318 91.7517696,100.682442 C92.2518015,99.6198744 93.0643533,98.9948346 94.1269211,99.2761025 C94.3144331,99.3386065 94.470693,99.4011105 94.626953,99.4948665 C95.4395048,100.057402 95.1269849,100.901206 94.720709,101.74501 C93.5331332,104.088909 92.5018175,105.807769 91.8142736,108.245424 C91.5330057,109.27674 91.1892338,111.058104 92.2830535,111.058104 C93.0331013,111.058104 93.7518972,110.808088 94.439441,110.308056 C95.8770327,109.245488 97.0333564,107.651637 97.9084122,106.089037 C98.5334521,104.963965 99.2834999,103.495122 99.6585238,102.245042 C99.8147838,101.713758 100.002296,101.213726 100.22106,100.744946 C100.564832,99.9636463 101.033612,99.1510945 101.846163,99.1510945 C102.252439,99.1510945 102.596211,99.3073545 102.846227,99.6198744 C103.377511,100.307418 103.252503,101.026214 102.971235,101.776262 C102.346195,103.526374 101.502391,105.088973 100.814848,106.995345 C100.408572,108.089164 99.9710438,109.495504 99.9710438,110.651828 C99.9710438,111.714396 101.127367,111.46438 102.096179,111.026852 C102.846227,110.68308 103.596275,110.151796 104.221315,109.620512 C104.596339,108.089164 104.502583,108.432936 112.471841,88.306653 C112.878117,87.2753373 113.628165,86.8378094 114.378212,86.8378094 C114.753236,86.8378094 115.065756,86.9628173 115.378276,87.1815813 C115.90956,87.5878572 115.90956,88.462913 115.690796,89.1192048 C115.472032,89.7129927 115.503284,89.5254807 114.284456,92.4006641 C112.659353,96.1821552 111.596785,98.9010786 110.159193,102.37005 C109.565406,103.807641 107.75279,108.276676 107.44027,109.339244 C107.252758,110.026788 107.033994,111.15186 107.75279,111.15186 C109.440398,111.15186 113.784425,107.057849 114.972,105.839021 C115.034504,105.745265 115.12826,105.714013 115.253268,105.651509 C115.44078,105.057721 115.628292,104.495185 115.784552,103.932649 C116.22208,102.745074 116.628356,101.369986 117.440908,100.401174 C117.690924,100.088654 117.972192,99.9011424 118.284712,99.9011424 C119.159767,99.9011424 119.597295,100.276166 119.597295,101.151222 C119.597295,101.494994 119.378531,102.745074 119.253523,103.088846 C119.691051,102.620066 120.159831,102.151286 120.659863,101.682506 C125.347662,97.3384789 128.691625,99.5573704 128.691625,101.74501 C128.691625,104.057657 125.910198,107.276613 124.37885,109.057976 C123.878818,109.651764 122.847503,110.745584 122.816251,111.058104 C122.816251,111.46438 123.097518,111.62064 123.503794,111.62064 C124.128834,111.62064 125.503922,110.52682 126.003954,110.151796 C127.566553,108.932968 129.691689,107.057849 131.191785,105.745265 L135.81708,62.9925388 C126.285222,68.3366296 74.0631417,68.3678816 64.4687799,63.0550428 Z M136.254607,60.3986234 C136.254607,66.9615419 64,66.9615419 64,60.3986234 C64,57.648448 80.1885323,55.4295566 100.127304,55.4295566 C102.939983,55.4295566 105.690158,55.4608085 108.346578,55.5545645 L112.284329,40.334844 L131.441801,20.1773086 C131.879328,19.7397807 133.254416,20.1148047 134.535748,21.2711284 C135.81708,22.4274521 136.598379,23.7400358 136.192103,24.1775637 L136.160851,24.2088157 L118.25346,43.1162714 L115.12826,55.8358325 C127.597805,56.6483843 136.254607,58.3672439 136.254607,60.3986234 Z M114.565724,61.8362151 C114.565724,61.5861991 114.284456,61.3674352 113.784425,61.1799232 L113.721921,61.4299392 C113.721921,61.8362151 112.159321,62.179987 110.252949,62.179987 C108.346578,62.179987 106.783978,61.8362151 106.783978,61.4299392 C106.783978,61.3986872 106.783978,61.3674352 106.81523,61.3361832 L106.877734,61.1174193 C106.315198,61.3049312 105.940174,61.5549472 105.940174,61.8362151 C105.940174,62.4925069 107.877798,62.9925388 110.221697,62.9925388 C112.628101,63.0237908 114.565724,62.4925069 114.565724,61.8362151 Z" id="Shape"></path>
		</g>
	</g>
</svg>
